<svg width="25" height="25" viewBox="0 0 25 25" fill="none" xmlns="http://www.w3.org/2000/svg">
<g clip-path="url(#clip0)">
<path d="M12.7604 2.08333H11.6145C11.2708 0.885417 10.1666 0 8.85413 0C7.54163 0 6.43746 0.885417 6.09371 2.08333H4.94788C4.52079 2.08333 4.16663 2.4375 4.16663 2.86458V4.42708C4.16663 5.42708 4.98954 6.25 5.98954 6.25H11.7187C12.7187 6.25 13.5416 5.42708 13.5416 4.42708V2.86458C13.5416 2.4375 13.1875 2.08333 12.7604 2.08333Z" fill="white"/>
<path d="M14.8438 3.125H14.5833V4.42708C14.5833 6.01042 13.3021 7.29167 11.7188 7.29167H5.98958C4.40625 7.29167 3.125 6.01042 3.125 4.42708V3.125H2.86458C1.28125 3.125 0 4.40625 0 5.98958V19.0104C0 20.5938 1.28125 21.875 2.86458 21.875H9.72917C9.20833 20.7604 8.89583 19.5312 8.86458 18.2292H3.90625C3.47917 18.2292 3.125 17.875 3.125 17.4479C3.125 17.0208 3.47917 16.6667 3.90625 16.6667H8.94792C9.04167 16.0312 9.19792 15.4271 9.40625 14.8438H3.90625C3.47917 14.8438 3.125 14.4896 3.125 14.0625C3.125 13.6354 3.47917 13.2812 3.90625 13.2812H10.1563C10.5625 12.6146 11.0417 12 11.6042 11.4583H3.90625C3.47917 11.4583 3.125 11.1042 3.125 10.6771C3.125 10.25 3.47917 9.89583 3.90625 9.89583H13.7396C14.9375 9.27083 16.2813 8.89583 17.7083 8.86458V5.98958C17.7083 4.40625 16.4271 3.125 14.8438 3.125Z" fill="white"/>
<path d="M17.9687 10.9375C14.0917 10.9375 10.9375 14.0917 10.9375 17.9687C10.9375 21.8458 14.0917 25 17.9687 25C21.8458 25 25 21.8458 25 17.9687C25 14.0917 21.8458 10.9375 17.9687 10.9375ZM20.8333 19.0104H19.0104V20.8333C19.0104 21.4083 18.5437 21.875 17.9687 21.875C17.3937 21.875 16.9271 21.4083 16.9271 20.8333V19.0104H15.1042C14.5292 19.0104 14.0625 18.5437 14.0625 17.9687C14.0625 17.3937 14.5292 16.9271 15.1042 16.9271H16.9271V15.1042C16.9271 14.5292 17.3937 14.0625 17.9687 14.0625C18.5437 14.0625 19.0104 14.5292 19.0104 15.1042V16.9271H20.8333C21.4083 16.9271 21.875 17.3937 21.875 17.9687C21.875 18.5437 21.4083 19.0104 20.8333 19.0104Z" fill="white"/>
</g>
<defs>
<clipPath id="clip0">
<rect width="25" height="25" fill="white"/>
</clipPath>
</defs>
</svg>
