<svg width="25" height="25" viewBox="0 0 25 25" fill="none" xmlns="http://www.w3.org/2000/svg">
<g clip-path="url(#clip0)">
<path d="M15.6248 13.5418C15.0488 13.5418 14.5832 14.0085 14.5832 14.5834V18.7501C14.5832 19.3241 14.1165 19.7917 13.5415 19.7917H10.4165V4.16688C10.4165 3.2773 9.84983 2.48252 8.99782 2.18669L8.68941 2.08351H13.5415C14.1165 2.08351 14.5832 2.55118 14.5832 3.12529V6.25026C14.5832 6.82513 15.0488 7.29185 15.6248 7.29185C16.2008 7.29185 16.6664 6.82513 16.6664 6.25026V3.12529C16.6664 1.4024 15.2644 0.000320435 13.5415 0.000320435H2.34373C2.30405 0.000320435 2.27087 0.0180586 2.23234 0.0232084C2.18217 0.0190123 2.1343 0.000320435 2.08338 0.000320435C0.9344 0.000320435 0 0.934531 0 2.08351V20.8333C0 21.7229 0.566667 22.5177 1.41867 22.8135L7.68749 24.9032C7.89996 24.9688 8.1113 25.0001 8.33331 25.0001C9.48228 25.0001 10.4165 24.0657 10.4165 22.9167V21.8751H13.5415C15.2644 21.8751 16.6664 20.473 16.6664 18.7501V14.5834C16.6664 14.0085 16.2008 13.5418 15.6248 13.5418Z" fill="white"/>
<path d="M24.6946 9.68041L20.5279 5.51385C20.2301 5.21592 19.7821 5.12628 19.3926 5.28764C19.0041 5.44919 18.7498 5.82932 18.7498 6.25027V9.37523H14.5833C14.0082 9.37523 13.5415 9.84177 13.5415 10.4168C13.5415 10.9919 14.0082 11.4584 14.5833 11.4584H18.7498V14.5834C18.7498 15.0043 19.0041 15.3845 19.3926 15.546C19.7821 15.7074 20.2301 15.6177 20.5279 15.32L24.6946 11.1532C25.1018 10.746 25.1018 10.0876 24.6946 9.68041Z" fill="white"/>
</g>
<defs>
<clipPath id="clip0">
<rect width="25" height="25" fill="white"/>
</clipPath>
</defs>
</svg>
