<svg width="25" height="25" viewBox="0 0 25 25" fill="none" xmlns="http://www.w3.org/2000/svg">
<path d="M24.5445 4.00371C24.4061 3.76914 24.1778 3.60468 23.9143 3.551L9.93635 0.137057C9.47571 0.0465873 9.02119 0.304401 8.86176 0.750331L3.53375 14.4631L5.31248 15.1197L10.3617 2.08114L22.507 5.22095C21.7484 7.60319 19.9435 12.5754 18.2134 17.205C16.7049 21.2444 15.8369 22.6276 14.1871 22.9101C14.1851 22.9081 14.1834 22.9062 14.1834 22.9032C10.8116 23.3821 10.8721 19.0273 10.8721 19.0273L0.103554 14.6205C-0.661689 19.5344 3.0653 20.7162 3.0653 20.7162L10.9493 24.3427C10.9513 24.3437 12.182 24.9376 13.5197 24.8765C17.1278 24.7904 18.3957 22.1362 19.9845 17.884C22.2797 11.7384 24.6094 4.85235 24.6323 4.77932C24.7144 4.51878 24.682 4.23777 24.5445 4.00371Z" fill="white"/>
<path d="M18.1731 9.53366C18.2552 9.55641 18.3402 9.56849 18.4241 9.56849C18.8394 9.56849 19.2194 9.28799 19.3358 8.86241C19.4742 8.35116 19.1754 7.82306 18.6715 7.68377L14.569 6.40096C14.0706 6.26122 13.5435 6.56154 13.406 7.07226C13.2685 7.58345 13.5645 8.1116 14.0704 8.2514L18.1731 9.53366Z" fill="white"/>
<path d="M11.763 10.9139C11.5986 11.4174 11.8655 11.9597 12.3611 12.1277L16.4421 13.6052C16.5411 13.6386 16.6386 13.6536 16.7368 13.6541C17.1349 13.6562 17.5077 13.4018 17.6406 12.9991C17.8055 12.497 17.539 11.9539 17.0415 11.786L12.962 10.3095C12.4635 10.1424 11.9294 10.4127 11.763 10.9139Z" fill="white"/>
<path d="M11.4039 14.3127C10.9074 14.1444 10.3713 14.419 10.209 14.924C10.0457 15.4251 10.3178 15.9687 10.8144 16.1332L14.9039 17.6045C15.0023 17.6382 15.1005 17.6527 15.2 17.6527C15.5972 17.6527 15.9677 17.3965 16.0985 16.9941C16.2617 16.4901 15.9906 15.9475 15.4941 15.7831L11.4039 14.3127Z" fill="white"/>
<path d="M11.2525 5.28246C11.8321 5.28246 12.3024 5.74577 12.3024 6.31649C12.3024 6.88766 11.8321 7.35047 11.2525 7.35047C10.6725 7.35047 10.2023 6.88761 10.2023 6.31649C10.2024 5.74577 10.6725 5.28246 11.2525 5.28246Z" fill="white"/>
<path d="M9.76734 9.12642C10.3474 9.12642 10.8172 9.58934 10.8172 10.16C10.8172 10.7302 10.3474 11.193 9.76734 11.193C9.18734 11.193 8.7171 10.7302 8.7171 10.16C8.7171 9.58934 9.18734 9.12642 9.76734 9.12642Z" fill="white"/>
<path d="M8.18337 13.0923C8.76345 13.0923 9.23361 13.5557 9.23361 14.1273C9.23361 14.698 8.76345 15.1603 8.18337 15.1603C7.60337 15.1603 7.13312 14.6981 7.13312 14.1273C7.13312 13.5557 7.60337 13.0923 8.18337 13.0923Z" fill="white"/>
</svg>
