<svg width="25" height="25" viewBox="0 0 25 25" fill="none" xmlns="http://www.w3.org/2000/svg">
<path d="M24.4037 9.57333C24.2119 8.89642 23.6567 8.40133 22.9874 8.31002L16.634 7.39222L14.1199 1.10968C13.7528 0.190098 12.7423 -0.244141 11.8631 0.139722C11.4438 0.322761 11.1106 0.671261 10.9356 1.10963L8.42141 7.39217L2.06809 8.30997C1.12147 8.44783 0.460929 9.362 0.592737 10.3519C0.649362 10.7773 0.848802 11.1677 1.15543 11.4535L5.9422 15.9174L4.95872 22.9223C4.85217 23.6335 5.16455 24.3422 5.75097 24.7194C6.32912 25.1061 7.07279 25.0916 7.6368 24.6828L12.5277 21.2045L17.4186 24.6863C18.2078 25.2465 19.2818 25.0316 19.8175 24.2062C20.0609 23.8312 20.1606 23.3741 20.0967 22.9258L19.1133 15.9183L23.9 11.4544C24.4083 10.9863 24.6056 10.2493 24.4037 9.57333Z" fill="white"/>
</svg>
