<svg width="200" height="60" viewBox="0 0 200 60" fill="none" xmlns="http://www.w3.org/2000/svg">
<path d="M56.129 13.5484V0H37.7419C34.8118 0 31.9964 1.23094 30 3.34079C28.0036 1.23094 25.1882 0 22.2581 0H3.87097V13.5484H0V56.129H23.3033C24.6774 58.4992 27.2409 60 30 60C32.7591 60 35.3226 58.4992 36.6967 56.129H60V13.5484H56.129ZM5.80645 1.93548H22.2581C24.8844 1.93548 27.3879 3.15272 29.0323 5.19074V26.129H30.9677V5.19074C32.6121 3.15272 35.1156 1.93548 37.7419 1.93548H54.1935V42.5806H50.1359C42.8613 42.5806 35.9893 45.5042 30.9677 50.6689V28.0645H29.0323V50.6689C24.0116 45.5042 17.1406 42.5806 9.86407 42.5806H5.80645V1.93548ZM7.74194 44.5161H9.86407C15.8652 44.5161 21.5672 46.6614 26.0312 50.5036C22.045 49.1129 17.8229 48.3871 13.6027 48.3871H7.74194V44.5161ZM52.2581 44.5161V48.3871H46.3973C42.1771 48.3871 37.9527 49.1129 33.9669 50.5045C38.4318 46.6614 44.1357 44.5161 50.1359 44.5161H52.2581ZM58.0645 54.1935H35.5026L35.2404 54.745C34.2811 56.7617 32.2237 58.0645 30 58.0645C27.7763 58.0645 25.7189 56.7617 24.7606 54.745L24.4974 54.1935H1.93548V15.4839H3.87097V44.5161H5.80645V50.3226H13.6027C19.1167 50.3226 24.6368 51.6263 29.5676 54.092L30 54.3079L30.4324 54.091C35.3632 51.6263 40.8833 50.3226 46.3973 50.3226H54.1935V44.5161H56.129V15.4839H58.0645V54.1935Z" fill="white"/>
<path d="M14.0507 37.0889C14.4561 38.6128 15.8421 39.6774 17.4194 39.6774C18.9967 39.6774 20.3826 38.6128 20.788 37.0889L23.9644 25.1778L23.9653 25.1769C24.117 24.6066 24.1936 24.0192 24.1936 23.4328V23.2258C24.1936 20.5626 22.6451 18.2614 20.4058 17.1543L21.7123 11.2741C21.9037 10.4098 21.6958 9.51771 21.1424 8.82782C20.5886 8.13792 19.7622 7.74194 18.8776 7.74194H18.3871V7.66728C18.3871 6.1084 17.1174 4.83871 15.5585 4.83871C14.7727 4.83871 14.0157 5.16854 13.4818 5.7455C12.9483 6.32151 12.6766 7.10119 12.7366 7.88417L13.4931 17.7156C11.7726 18.9456 10.6452 20.9544 10.6452 23.2258V23.4328C10.6452 24.0192 10.7217 24.6066 10.8734 25.1788L14.0507 37.0889ZM22.2581 23.2258V23.4328C22.2581 23.8519 22.2028 24.272 22.0955 24.6793L18.9192 36.5904C18.7373 37.2689 18.122 37.742 17.4194 37.742C16.7167 37.742 16.1015 37.2689 15.9196 36.5904L14.6787 31.9355H17.4194V30H14.1627L13.6472 28.0645H15.4839V26.129H13.1302L12.7442 24.6803C12.7016 24.5196 12.6737 24.3561 12.6482 24.1936H17.4194V22.2581H12.6785C13.1283 20.0528 15.0822 18.3871 17.4194 18.3871C20.0873 18.3871 22.2581 20.5579 22.2581 23.2258ZM18.8776 9.67743C19.1729 9.67743 19.4479 9.80926 19.6318 10.0394C19.8165 10.2695 19.886 10.5667 19.8212 10.855L18.5544 16.5542C18.4986 16.5447 18.4424 16.5367 18.3862 16.5282V9.67743H18.8776ZM14.6669 7.73627C14.648 7.48536 14.7311 7.24531 14.9022 7.06055C15.0737 6.87579 15.3057 6.7742 15.5585 6.7742C16.0509 6.7742 16.4516 7.1749 16.4516 7.66728V16.5291C16.0793 16.5835 15.7131 16.6605 15.3629 16.7729L14.6669 7.73627Z" fill="white"/>
<path d="M36.7799 36.4973C38.3808 37.9276 40.4595 38.7087 42.601 38.7078C42.9298 38.7078 43.2601 38.6894 43.59 38.6525C47.5082 38.2102 50.7167 35.0528 51.2176 31.1449C51.7217 27.1993 49.5136 23.4077 45.8468 21.923L45.121 23.7172C47.9727 24.8721 49.6908 27.8254 49.2967 30.8992C48.9088 33.9338 46.4157 36.3853 43.3721 36.7279C41.4097 36.9571 39.5253 36.3541 38.0689 35.0528C36.632 33.7694 35.8065 31.927 35.8065 30C35.8065 26.7726 38.1001 23.9776 41.2609 23.3534C42.5863 23.0921 43.5484 21.9008 43.5484 20.521V20.3226H44.5161C47.184 20.3226 49.3548 18.1518 49.3548 15.4839V14.5161H46.4516C45.3582 14.5161 44.3593 14.8946 43.5484 15.5089V11.6129H41.6129V20.522C41.6129 20.9799 41.3081 21.3725 40.8862 21.4557C36.8214 22.2571 33.871 25.8502 33.871 30C33.871 32.4775 34.9318 34.8453 36.7799 36.4973ZM46.4516 16.4516H47.254C46.8542 17.5781 45.7783 18.3871 44.5161 18.3871H43.7138C44.1135 17.2606 45.1895 16.4516 46.4516 16.4516Z" fill="white"/>
<path d="M42.5806 27.0968C44.1811 27.0968 45.4839 28.3995 45.4839 30H47.4193C47.4193 27.3321 45.2485 25.1613 42.5806 25.1613V27.0968Z" fill="white"/>
<path d="M44.5161 3.87097H52.2581V5.80646H44.5161V3.87097Z" fill="white"/>
<path d="M44.5161 7.74194H52.2581V9.67743H44.5161V7.74194Z" fill="white"/>
<path d="M77.608 24.408C76.36 24.408 75.736 23.872 75.736 22.8C75.736 22.448 75.784 22.048 75.88 21.6C75.992 21.136 76.144 20.544 76.336 19.824C76.56 19.072 76.728 18.432 76.84 17.904C76.952 17.376 77.008 16.904 77.008 16.488C77.008 15.4 76.528 14.856 75.568 14.856C75.312 14.856 75.048 14.888 74.776 14.952L72.856 24H69.4L72.88 7.68C71.808 8.128 70.976 8.8 70.384 9.696C69.808 10.592 69.52 11.672 69.52 12.936C69.52 13.528 69.576 13.944 69.688 14.184C69.8 14.408 69.856 14.536 69.856 14.568C68.992 14.568 68.344 14.392 67.912 14.04C67.496 13.672 67.288 13.072 67.288 12.24C67.288 11.216 67.704 10.224 68.536 9.264C69.384 8.288 70.464 7.504 71.776 6.912C73.088 6.304 74.4 6 75.712 6C75.936 6 76.256 6.016 76.672 6.048L75.136 13.224C75.456 12.28 75.896 11.32 76.456 10.344C77.032 9.368 77.552 8.616 78.016 8.088C79.152 6.696 80.328 6 81.544 6C82.056 6 82.48 6.144 82.816 6.432C83.168 6.704 83.344 7.096 83.344 7.608C83.344 8.184 83.192 8.608 82.888 8.88C82.584 9.152 82.216 9.288 81.784 9.288C81.096 9.288 80.624 8.968 80.368 8.328C79.552 8.824 78.808 9.528 78.136 10.44C77.48 11.352 76.848 12.472 76.24 13.8C76.496 13.784 76.832 13.776 77.248 13.776C78.336 13.776 79.104 14.008 79.552 14.472C80 14.92 80.224 15.544 80.224 16.344C80.224 16.808 80.168 17.304 80.056 17.832C79.944 18.344 79.784 18.984 79.576 19.752C79.448 20.248 79.328 20.736 79.216 21.216C79.104 21.696 79.048 22.096 79.048 22.416C79.048 22.784 79.128 23.112 79.288 23.4C79.464 23.688 79.696 23.888 79.984 24C79.008 24.272 78.216 24.408 77.608 24.408ZM85.9784 30C85.2104 30 84.5704 29.8 84.0584 29.4C83.5464 29 83.2904 28.424 83.2904 27.672C83.2904 26.76 83.6584 26.024 84.3944 25.464C85.1304 24.92 86.0664 24.464 87.2024 24.096L87.4904 22.8C87.0264 23.312 86.5544 23.664 86.0744 23.856C85.5944 24.048 85.1064 24.144 84.6104 24.144C83.8424 24.144 83.2184 23.904 82.7384 23.424C82.2744 22.944 82.0424 22.224 82.0424 21.264C82.0424 20.864 82.1064 20.344 82.2344 19.704L83.8664 12H87.3224L85.5944 20.16C85.5464 20.352 85.5224 20.552 85.5224 20.76C85.5224 21.464 85.7624 21.816 86.2424 21.816C86.6584 21.816 87.0264 21.64 87.3464 21.288C87.6664 20.92 87.9224 20.44 88.1144 19.848L89.7944 12H93.2504L90.8744 23.136C91.6424 22.88 92.2584 22.496 92.7224 21.984C93.1864 21.472 93.5784 20.712 93.8984 19.704H94.9064C94.4744 21.128 93.8904 22.176 93.1544 22.848C92.4184 23.504 91.5864 23.952 90.6584 24.192L90.2984 25.92C89.9784 27.472 89.4264 28.536 88.6424 29.112C87.8584 29.704 86.9704 30 85.9784 30ZM85.4264 28.128C85.6984 28.128 85.9624 27.944 86.2184 27.576C86.4744 27.208 86.6744 26.68 86.8184 25.992L86.9624 25.296C85.3944 25.872 84.6104 26.552 84.6104 27.336C84.6104 27.544 84.6824 27.728 84.8264 27.888C84.9704 28.048 85.1704 28.128 85.4264 28.128ZM95.8023 24.144C94.9383 24.144 94.2583 23.88 93.7622 23.352C93.2502 22.808 92.9942 22.152 92.9942 21.384C92.9942 20.84 93.1222 20.408 93.3782 20.088C93.6342 19.752 93.9863 19.584 94.4343 19.584C94.8183 19.584 95.1303 19.704 95.3703 19.944C95.6103 20.184 95.7303 20.472 95.7303 20.808C95.7303 21.192 95.6343 21.488 95.4423 21.696C95.2503 21.888 95.0263 21.968 94.7703 21.936C94.7703 22.544 95.0823 22.848 95.7063 22.848C96.1383 22.848 96.4983 22.68 96.7863 22.344C97.0743 21.992 97.3223 21.472 97.5303 20.784C97.7383 20.096 97.9543 19.152 98.1783 17.952C98.4823 16.336 98.8343 15.096 99.2343 14.232C99.6503 13.368 100.122 12.784 100.65 12.48C101.194 12.16 101.858 12 102.642 12H106.17L104.898 17.952C104.738 18.64 104.602 19.24 104.49 19.752C104.378 20.264 104.322 20.616 104.322 20.808C104.322 21.48 104.642 21.816 105.282 21.816C105.73 21.816 106.09 21.664 106.362 21.36C106.634 21.056 106.946 20.504 107.298 19.704H108.306C107.298 22.664 105.786 24.144 103.77 24.144C102.89 24.144 102.21 23.896 101.73 23.4C101.25 22.904 101.01 22.304 101.01 21.6C101.01 21.04 101.186 19.952 101.538 18.336L102.666 13.224C102.058 13.224 101.562 13.352 101.178 13.608C100.81 13.864 100.498 14.296 100.242 14.904C99.9863 15.512 99.7463 16.368 99.5223 17.472C99.1703 19.28 98.8663 20.616 98.6103 21.48C98.3703 22.328 98.0343 22.984 97.6023 23.448C97.1703 23.912 96.5703 24.144 95.8023 24.144ZM109.665 24.144C108.897 24.144 108.273 23.904 107.793 23.424C107.329 22.944 107.097 22.224 107.097 21.264C107.097 20.864 107.161 20.344 107.289 19.704L108.921 12H112.377L110.649 20.16C110.601 20.4 110.577 20.624 110.577 20.832C110.577 21.488 110.817 21.816 111.297 21.816C111.745 21.816 112.129 21.632 112.449 21.264C112.769 20.88 113.025 20.36 113.217 19.704L114.849 12H118.305L116.577 20.16C116.513 20.4 116.481 20.656 116.481 20.928C116.481 21.248 116.553 21.48 116.697 21.624C116.857 21.752 117.113 21.816 117.465 21.816C117.913 21.816 118.297 21.624 118.617 21.24C118.953 20.856 119.217 20.344 119.409 19.704H120.417C119.825 21.432 119.089 22.608 118.209 23.232C117.345 23.84 116.473 24.144 115.593 24.144C114.905 24.144 114.353 23.952 113.937 23.568C113.537 23.184 113.297 22.616 113.217 21.864C112.673 22.744 112.097 23.344 111.489 23.664C110.897 23.984 110.289 24.144 109.665 24.144ZM128.118 24.144C127.206 24.144 126.502 23.904 126.006 23.424C125.526 22.928 125.286 22.32 125.286 21.6C125.286 21.136 125.47 20.016 125.838 18.24H123.174L121.95 24H118.494L121.038 12H124.494L123.462 16.8H126.15L127.23 12H130.446L129.174 17.952C129.014 18.64 128.878 19.24 128.766 19.752C128.654 20.264 128.598 20.616 128.598 20.808C128.598 21.48 128.918 21.816 129.558 21.816C130.006 21.816 130.366 21.664 130.638 21.36C130.91 21.056 131.222 20.504 131.574 19.704H132.582C131.574 22.664 130.086 24.144 128.118 24.144ZM134.45 24.144C133.538 24.144 132.778 23.832 132.17 23.208C131.562 22.584 131.258 21.608 131.258 20.28C131.258 19.096 131.49 17.856 131.954 16.56C132.434 15.248 133.138 14.144 134.066 13.248C135.01 12.336 136.13 11.88 137.426 11.88C138.082 11.88 138.57 11.992 138.89 12.216C139.21 12.44 139.37 12.736 139.37 13.104V13.272L139.634 12H143.09L141.362 20.16C141.298 20.4 141.266 20.656 141.266 20.928C141.266 21.616 141.594 21.96 142.25 21.96C142.698 21.96 143.082 21.752 143.402 21.336C143.738 20.92 144.002 20.376 144.194 19.704H145.202C144.61 21.432 143.874 22.608 142.994 23.232C142.13 23.84 141.258 24.144 140.378 24.144C139.706 24.144 139.162 23.96 138.746 23.592C138.346 23.208 138.106 22.656 138.026 21.936C137.562 22.592 137.042 23.128 136.466 23.544C135.906 23.944 135.234 24.144 134.45 24.144ZM136.01 21.816C136.41 21.816 136.802 21.632 137.186 21.264C137.586 20.88 137.858 20.36 138.002 19.704L139.154 14.28C139.154 14.072 139.074 13.872 138.914 13.68C138.754 13.472 138.506 13.368 138.17 13.368C137.53 13.368 136.954 13.744 136.442 14.496C135.93 15.232 135.53 16.128 135.242 17.184C134.954 18.224 134.81 19.144 134.81 19.944C134.81 20.744 134.922 21.256 135.146 21.48C135.386 21.704 135.674 21.816 136.01 21.816ZM146.027 11.112H149.483L149.099 12.912C149.899 12.224 150.835 11.88 151.907 11.88C152.803 11.88 153.515 12.176 154.043 12.768C154.571 13.36 154.835 14.328 154.835 15.672C154.835 16.936 154.651 18.216 154.283 19.512C153.915 20.792 153.291 21.888 152.411 22.8C151.531 23.696 150.371 24.144 148.931 24.144C147.907 24.144 147.227 23.856 146.891 23.28L145.643 29.136L142.019 30L146.027 11.112ZM148.187 22.056C148.955 22.056 149.587 21.696 150.083 20.976C150.595 20.256 150.963 19.4 151.187 18.408C151.427 17.4 151.547 16.464 151.547 15.6C151.547 14.272 151.147 13.608 150.347 13.608C150.059 13.608 149.763 13.712 149.459 13.92C149.171 14.128 148.915 14.416 148.691 14.784L147.275 21.504C147.403 21.872 147.707 22.056 148.187 22.056ZM164.142 24.144C163.23 24.144 162.526 23.904 162.03 23.424C161.55 22.928 161.31 22.32 161.31 21.6C161.31 21.136 161.494 20.016 161.862 18.24H159.198L157.974 24H154.518L157.062 12H160.518L159.486 16.8H162.174L163.254 12H166.47L165.198 17.952C165.038 18.64 164.902 19.24 164.79 19.752C164.678 20.264 164.622 20.616 164.622 20.808C164.622 21.48 164.942 21.816 165.582 21.816C166.03 21.816 166.39 21.664 166.662 21.36C166.934 21.056 167.246 20.504 167.598 19.704H168.606C167.598 22.664 166.11 24.144 164.142 24.144ZM170.882 24.144C169.794 24.144 168.946 23.872 168.338 23.328C167.746 22.784 167.45 22.032 167.45 21.072C167.45 20.592 167.506 20.136 167.618 19.704L169.202 12H172.514L170.738 20.448C170.69 20.576 170.666 20.8 170.666 21.12C170.666 21.776 171.026 22.104 171.746 22.104C172.178 22.104 172.594 21.928 172.994 21.576C173.394 21.208 173.714 20.72 173.954 20.112C174.194 19.504 174.314 18.84 174.314 18.12C174.314 17.72 174.194 17.416 173.954 17.208C173.746 17.352 173.514 17.424 173.258 17.424C172.986 17.424 172.738 17.336 172.514 17.16C172.306 16.984 172.202 16.728 172.202 16.392C172.202 16.04 172.338 15.768 172.61 15.576C172.882 15.384 173.194 15.288 173.546 15.288C173.914 15.288 174.242 15.336 174.53 15.432C175.554 14.968 176.778 14.304 178.202 13.44C179.354 12.752 180.186 12.272 180.698 12H182.186L180.914 17.952C180.754 18.64 180.618 19.24 180.506 19.752C180.394 20.264 180.338 20.616 180.338 20.808C180.338 21.48 180.658 21.816 181.298 21.816C181.746 21.816 182.106 21.664 182.378 21.36C182.65 21.056 182.962 20.504 183.314 19.704H184.322C183.314 22.664 181.834 24.144 179.882 24.144C178.954 24.144 178.25 23.896 177.77 23.4C177.29 22.888 177.05 22.264 177.05 21.528C177.05 20.952 177.49 18.696 178.37 14.76C177.618 15.24 176.722 15.76 175.682 16.32C176.066 16.912 176.258 17.712 176.258 18.72C176.258 19.472 176.058 20.272 175.658 21.12C175.258 21.952 174.65 22.664 173.834 23.256C173.034 23.848 172.05 24.144 170.882 24.144ZM189.56 10.824C188.568 10.824 187.8 10.64 187.256 10.272C186.712 9.904 186.44 9.4 186.44 8.76C186.44 8.232 186.584 7.808 186.872 7.488C187.176 7.168 187.568 7.008 188.048 7.008C188.512 7.008 188.872 7.12 189.128 7.344C189.4 7.568 189.536 7.888 189.536 8.304C189.536 8.816 189.344 9.2 188.96 9.456C189.168 9.52 189.488 9.552 189.92 9.552C190.688 9.552 191.4 9.336 192.056 8.904C192.712 8.472 193.232 7.752 193.616 6.744H194.624C194.112 8.248 193.44 9.304 192.608 9.912C191.792 10.52 190.776 10.824 189.56 10.824ZM185.696 24.144C184.928 24.144 184.304 23.904 183.824 23.424C183.36 22.944 183.128 22.224 183.128 21.264C183.128 20.864 183.192 20.344 183.32 19.704L184.952 12H188.408L186.68 20.16C186.632 20.352 186.608 20.552 186.608 20.76C186.608 21.464 186.848 21.816 187.328 21.816C187.776 21.816 188.16 21.632 188.48 21.264C188.8 20.88 189.056 20.36 189.248 19.704L190.88 12H194.336L192.608 20.16C192.544 20.4 192.512 20.656 192.512 20.928C192.512 21.248 192.584 21.48 192.728 21.624C192.888 21.752 193.144 21.816 193.496 21.816C193.752 21.816 193.936 21.8 194.048 21.768C194.176 21.72 194.256 21.688 194.288 21.672C194.224 22.488 193.944 23.104 193.448 23.52C192.952 23.936 192.344 24.144 191.624 24.144C190.952 24.144 190.408 23.944 189.992 23.544C189.592 23.144 189.352 22.584 189.272 21.864C188.728 22.744 188.152 23.344 187.544 23.664C186.952 23.984 186.336 24.144 185.696 24.144ZM72.712 54.384C70.904 54.384 69.576 53.928 68.728 53.016C67.88 52.104 67.456 50.592 67.456 48.48C67.456 46.8 67.736 44.992 68.296 43.056C68.872 41.12 69.784 39.464 71.032 38.088C72.296 36.696 73.896 36 75.832 36C77.032 36 78 36.264 78.736 36.792C79.472 37.32 79.84 38.128 79.84 39.216C79.84 39.904 79.704 40.448 79.432 40.848C79.16 41.232 78.736 41.424 78.16 41.424C77.584 41.424 77.128 41.216 76.792 40.8C77.08 40.656 77.336 40.368 77.56 39.936C77.784 39.504 77.896 39.056 77.896 38.592C77.896 38.16 77.776 37.808 77.536 37.536C77.312 37.264 76.944 37.128 76.432 37.128C75.584 37.128 74.776 37.712 74.008 38.88C73.24 40.032 72.616 41.488 72.136 43.248C71.672 45.008 71.44 46.704 71.44 48.336C71.44 49.552 71.648 50.48 72.064 51.12C72.48 51.76 73.232 52.08 74.32 52.08C75.264 52.08 76.136 51.872 76.936 51.456C77.736 51.04 78.424 50.448 79 49.68L79.552 49.92C79.152 50.928 78.56 51.768 77.776 52.44C76.992 53.112 76.152 53.608 75.256 53.928C74.36 54.232 73.512 54.384 72.712 54.384ZM87.5937 54.144C86.6177 54.144 85.8977 53.888 85.4337 53.376C84.9857 52.848 84.7617 52.2 84.7617 51.432C84.7617 51.096 84.8017 50.72 84.8817 50.304C84.9617 49.872 85.0417 49.456 85.1217 49.056C85.2177 48.656 85.2817 48.4 85.3137 48.288C85.4417 47.728 85.5617 47.176 85.6737 46.632C85.7857 46.088 85.8417 45.648 85.8417 45.312C85.8417 44.496 85.5537 44.088 84.9777 44.088C84.5617 44.088 84.1937 44.296 83.8737 44.712C83.5537 45.112 83.2977 45.64 83.1057 46.296L81.4737 54H78.0177L80.5617 42H84.0177L83.7537 43.248C84.5537 42.352 85.4897 41.904 86.5617 41.904C87.3777 41.904 88.0257 42.128 88.5057 42.576C88.9857 43.024 89.2257 43.704 89.2257 44.616C89.2257 45.08 89.1697 45.6 89.0577 46.176C88.9457 46.736 88.7857 47.424 88.5777 48.24C88.4497 48.736 88.3297 49.224 88.2177 49.704C88.1217 50.168 88.0737 50.536 88.0737 50.808C88.0737 51.128 88.1457 51.376 88.2897 51.552C88.4337 51.728 88.6817 51.816 89.0337 51.816C89.5137 51.816 89.8977 51.648 90.1857 51.312C90.4737 50.96 90.7617 50.424 91.0497 49.704H92.0577C91.4657 51.464 90.7777 52.648 89.9937 53.256C89.2257 53.848 88.4257 54.144 87.5937 54.144ZM92.8709 41.112H96.3269L95.9429 42.912C96.7429 42.224 97.6789 41.88 98.7509 41.88C99.6469 41.88 100.359 42.176 100.887 42.768C101.415 43.36 101.679 44.328 101.679 45.672C101.679 46.936 101.495 48.216 101.127 49.512C100.759 50.792 100.135 51.888 99.2549 52.8C98.3749 53.696 97.2149 54.144 95.7749 54.144C94.7509 54.144 94.0709 53.856 93.7349 53.28L92.4869 59.136L88.8629 60L92.8709 41.112ZM95.0309 52.056C95.7989 52.056 96.4309 51.696 96.9269 50.976C97.4389 50.256 97.8069 49.4 98.0309 48.408C98.2709 47.4 98.3909 46.464 98.3909 45.6C98.3909 44.272 97.9909 43.608 97.1909 43.608C96.9029 43.608 96.6069 43.712 96.3029 43.92C96.0149 44.128 95.7589 44.416 95.5349 44.784L94.1189 51.504C94.2469 51.872 94.5509 52.056 95.0309 52.056ZM105.153 54.144C104.241 54.144 103.481 53.832 102.873 53.208C102.265 52.584 101.961 51.608 101.961 50.28C101.961 49.096 102.193 47.856 102.657 46.56C103.137 45.248 103.841 44.144 104.769 43.248C105.713 42.336 106.833 41.88 108.129 41.88C108.785 41.88 109.273 41.992 109.593 42.216C109.913 42.44 110.073 42.736 110.073 43.104V43.272L110.337 42H113.793L112.065 50.16C112.001 50.4 111.969 50.656 111.969 50.928C111.969 51.616 112.297 51.96 112.953 51.96C113.401 51.96 113.785 51.752 114.105 51.336C114.441 50.92 114.705 50.376 114.897 49.704H115.905C115.313 51.432 114.577 52.608 113.697 53.232C112.833 53.84 111.961 54.144 111.081 54.144C110.409 54.144 109.865 53.96 109.449 53.592C109.049 53.208 108.809 52.656 108.729 51.936C108.265 52.592 107.745 53.128 107.169 53.544C106.609 53.944 105.937 54.144 105.153 54.144ZM106.713 51.816C107.113 51.816 107.505 51.632 107.889 51.264C108.289 50.88 108.561 50.36 108.705 49.704L109.857 44.28C109.857 44.072 109.777 43.872 109.617 43.68C109.457 43.472 109.209 43.368 108.873 43.368C108.233 43.368 107.657 43.744 107.145 44.496C106.633 45.232 106.233 46.128 105.945 47.184C105.657 48.224 105.513 49.144 105.513 49.944C105.513 50.744 105.625 51.256 105.849 51.48C106.089 51.704 106.377 51.816 106.713 51.816ZM118.554 54.096C117.226 54.096 116.226 53.704 115.554 52.92C114.898 52.136 114.57 51.088 114.57 49.776C114.57 48.496 114.914 46.736 115.602 44.496C116.29 42.24 117.202 40.256 118.338 38.544C119.474 36.832 120.698 35.976 122.01 35.976C123.77 35.976 124.65 37.072 124.65 39.264C124.65 40.816 123.994 42.736 122.682 45.024C123.018 45.184 123.322 45.424 123.594 45.744C124.298 45.744 125.058 45.592 125.874 45.288C126.706 44.984 127.41 44.632 127.986 44.232L128.202 44.88C127.77 45.344 127.194 45.752 126.474 46.104C125.77 46.44 124.994 46.68 124.146 46.824C124.226 47.128 124.266 47.528 124.266 48.024C124.266 49.096 124.034 50.096 123.57 51.024C123.106 51.952 122.442 52.696 121.578 53.256C120.714 53.816 119.706 54.096 118.554 54.096ZM119.61 51.936C120.106 51.936 120.538 51.768 120.906 51.432C121.29 51.096 121.578 50.672 121.77 50.16C121.978 49.648 122.082 49.12 122.082 48.576C122.082 47.984 122.01 47.544 121.866 47.256C121.754 47.304 121.634 47.344 121.506 47.376C121.378 47.392 121.21 47.4 121.002 47.4C120.618 47.4 120.314 47.296 120.09 47.088C119.866 46.88 119.754 46.592 119.754 46.224C119.754 45.744 119.898 45.392 120.186 45.168C120.49 44.944 120.906 44.816 121.434 44.784C121.898 43.936 122.29 43 122.61 41.976C122.946 40.936 123.114 40 123.114 39.168C123.114 38.688 123.05 38.352 122.922 38.16C122.81 37.952 122.61 37.848 122.322 37.848C121.698 37.848 121.058 38.624 120.402 40.176C119.762 41.728 119.226 43.496 118.794 45.48C118.362 47.464 118.146 48.92 118.146 49.848C118.146 51.24 118.634 51.936 119.61 51.936ZM129.192 54.096C128.008 54.096 127.072 53.792 126.384 53.184C125.696 52.576 125.351 51.616 125.351 50.304C125.351 49.216 125.575 48.008 126.024 46.68C126.472 45.352 127.192 44.208 128.184 43.248C129.176 42.272 130.424 41.784 131.928 41.784C133.976 41.784 135 43.064 135 45.624V45.648C135.048 45.664 135.136 45.672 135.264 45.672C135.792 45.672 136.4 45.536 137.088 45.264C137.776 44.976 138.4 44.632 138.96 44.232L139.176 44.88C138.712 45.376 138.104 45.8 137.352 46.152C136.616 46.488 135.808 46.728 134.928 46.872C134.8 48.328 134.472 49.6 133.944 50.688C133.416 51.776 132.736 52.616 131.904 53.208C131.072 53.8 130.168 54.096 129.192 54.096ZM130.152 51.936C130.536 51.936 130.92 51.72 131.304 51.288C131.688 50.84 132.024 50.24 132.312 49.488C132.6 48.72 132.808 47.872 132.936 46.944C132.504 46.848 132.288 46.512 132.288 45.936C132.288 45.28 132.536 44.848 133.032 44.64C133 44.112 132.92 43.752 132.792 43.56C132.664 43.352 132.44 43.248 132.12 43.248C131.592 43.248 131.08 43.632 130.584 44.4C130.088 45.168 129.688 46.088 129.384 47.16C129.08 48.232 128.928 49.176 128.928 49.992C128.928 50.76 129.016 51.28 129.192 51.552C129.368 51.808 129.688 51.936 130.152 51.936ZM144.304 54.144C143.536 54.144 142.912 53.904 142.432 53.424C141.968 52.944 141.736 52.224 141.736 51.264C141.736 50.864 141.8 50.344 141.928 49.704L142.048 49.104C141.584 49.616 141.112 49.968 140.632 50.16C140.152 50.352 139.664 50.448 139.168 50.448C138.4 50.448 137.776 50.208 137.296 49.728C136.832 49.248 136.6 48.528 136.6 47.568C136.6 47.168 136.664 46.648 136.792 46.008L137.632 42H141.088L140.152 46.464C140.104 46.704 140.08 46.928 140.08 47.136C140.08 47.792 140.32 48.12 140.8 48.12C141.264 48.12 141.664 47.928 142 47.544C142.352 47.144 142.592 46.632 142.72 46.008L143.56 42H147.016L145.288 50.16C145.224 50.4 145.192 50.656 145.192 50.928C145.192 51.248 145.264 51.48 145.408 51.624C145.568 51.752 145.824 51.816 146.176 51.816C146.624 51.816 147.008 51.624 147.328 51.24C147.664 50.856 147.928 50.344 148.12 49.704H149.128C148.536 51.432 147.8 52.608 146.92 53.232C146.056 53.84 145.184 54.144 144.304 54.144ZM156.829 54.144C155.917 54.144 155.213 53.904 154.717 53.424C154.237 52.928 153.997 52.32 153.997 51.6C153.997 51.136 154.181 50.016 154.549 48.24H151.885L150.661 54H147.205L149.749 42H153.205L152.173 46.8H154.861L155.941 42H159.157L157.885 47.952C157.725 48.64 157.589 49.24 157.477 49.752C157.365 50.264 157.309 50.616 157.309 50.808C157.309 51.48 157.629 51.816 158.269 51.816C158.717 51.816 159.077 51.664 159.349 51.36C159.621 51.056 159.933 50.504 160.285 49.704H161.293C160.285 52.664 158.797 54.144 156.829 54.144ZM162.657 54.144C161.889 54.144 161.265 53.904 160.785 53.424C160.321 52.944 160.089 52.224 160.089 51.264C160.089 50.864 160.153 50.344 160.281 49.704L161.913 42H165.369L163.641 50.16C163.593 50.4 163.569 50.624 163.569 50.832C163.569 51.488 163.809 51.816 164.289 51.816C164.737 51.816 165.121 51.632 165.441 51.264C165.761 50.88 166.017 50.36 166.209 49.704L167.841 42H171.297L169.569 50.16C169.505 50.4 169.473 50.656 169.473 50.928C169.473 51.248 169.545 51.48 169.689 51.624C169.849 51.752 170.105 51.816 170.457 51.816C170.905 51.816 171.289 51.624 171.609 51.24C171.945 50.856 172.209 50.344 172.401 49.704H173.409C172.817 51.432 172.081 52.608 171.201 53.232C170.337 53.84 169.465 54.144 168.585 54.144C167.897 54.144 167.345 53.952 166.929 53.568C166.529 53.184 166.289 52.616 166.209 51.864C165.665 52.744 165.089 53.344 164.481 53.664C163.889 53.984 163.281 54.144 162.657 54.144ZM180.798 54.144C180.014 54.144 179.374 53.904 178.878 53.424C178.398 52.928 178.158 52.28 178.158 51.48C178.158 51.096 178.214 50.664 178.326 50.184C178.342 50.072 178.366 49.904 178.398 49.68C178.43 49.456 178.446 49.272 178.446 49.128C178.446 48.792 178.374 48.528 178.23 48.336C178.086 48.144 177.87 48.048 177.582 48.048C177.358 48.048 177.15 48.112 176.958 48.24C176.766 48.352 176.446 48.584 175.998 48.936L174.942 54H171.486L174.054 42H177.51L176.478 46.752C177.31 45.92 178.062 45.128 178.734 44.376C179.39 43.672 179.886 43.16 180.222 42.84C180.574 42.504 180.926 42.248 181.278 42.072C181.63 41.88 182.014 41.784 182.43 41.784C182.99 41.784 183.414 41.928 183.702 42.216C183.99 42.504 184.134 42.896 184.134 43.392C184.134 43.872 183.998 44.248 183.726 44.52C183.47 44.792 183.102 44.928 182.622 44.928C182.158 44.928 181.822 44.808 181.614 44.568C181.406 44.312 181.302 44.024 181.302 43.704C180.982 43.912 180.686 44.144 180.414 44.4C180.158 44.64 179.806 45 179.358 45.48C178.782 46.104 178.486 46.424 178.47 46.44C178.79 46.376 179.126 46.344 179.478 46.344C181.03 46.344 181.806 47.048 181.806 48.456C181.806 48.808 181.742 49.256 181.614 49.8C181.502 50.216 181.446 50.568 181.446 50.856C181.446 51.496 181.782 51.816 182.454 51.816C182.87 51.816 183.19 51.736 183.414 51.576C183.334 52.424 183.062 53.064 182.598 53.496C182.134 53.928 181.534 54.144 180.798 54.144Z" fill="white"/>
</svg>
